# xmcd
# 
# Track frame offsets:
#     150
#     15738
#     42983
#     70303
# 
# Disc length: 1316
# 
# Revision: 0
# Processed by: cddbd v1.5.2PL0 Copyright (c) Steve Scherf et al.
# Submitted via: fre:ac v1.0.17
# 
DISCID=2f052204
DTITLE=Download - Millenium 2000
DYEAR=1999
DGENRE=
TTITLE0=Millenium 2000 (24:00 hours radio mix)
TTITLE1=Millenium 2000 (24:00 hours error mix)
TTITLE2=Q
TTITLE3=Millemium 2000 ((titten in comix mix)
EXTD=
EXTT0=
EXTT1=
EXTT2=
EXTT3=
PLAYORDER=
